<?xml version="1.0" standalone="no"?>
<!DOCTYPE svg PUBLIC "-//W3C//DTD SVG 20010904//EN"
 "http://www.w3.org/TR/2001/REC-SVG-20010904/DTD/svg10.dtd">
<svg version="1.0" xmlns="http://www.w3.org/2000/svg"
 width="512.000000pt" height="512.000000pt" viewBox="0 0 512.000000 512.000000"
 preserveAspectRatio="xMidYMid meet">

<g transform="translate(0.000000,512.000000) scale(0.100000,-0.100000)"
fill="#000000" stroke="none">
<path d="M3035 3996 c-146 -23 -285 -77 -415 -161 l-65 -41 -30 19 c-66 42
-235 116 -315 138 -74 21 -107 24 -260 24 -159 0 -184 -3 -270 -27 -372 -104
-649 -382 -752 -755 -18 -66 -22 -106 -22 -258 -1 -158 2 -190 22 -264 29
-107 62 -186 120 -286 42 -72 115 -148 742 -777 617 -618 699 -698 732 -704
95 -16 54 -52 801 694 694 694 745 749 816 889 199 397 118 895 -198 1211
-237 237 -577 349 -906 298z m339 -352 c34 -8 99 -34 146 -57 67 -33 103 -59
171 -127 149 -148 211 -294 212 -500 1 -167 -36 -288 -127 -414 -25 -33 -308
-324 -630 -646 l-586 -585 -599 600 -599 600 -46 95 c-105 214 -103 443 6 653
63 123 182 238 308 301 125 61 213 79 355 73 168 -8 283 -53 426 -167 41 -34
89 -62 107 -66 52 -10 110 2 145 30 18 15 58 49 91 76 93 78 208 126 366 154
43 8 191 -4 254 -20z"/>
</g>
</svg>
